<?xml version="1.0" encoding="UTF-8"?>
<svg id="Layer_1" xmlns="http://www.w3.org/2000/svg" version="1.1" viewBox="0 0 1288.3 288.6">
  <!-- Generator: Adobe Illustrator 29.5.0, SVG Export Plug-In . SVG Version: 2.1.0 Build 137)  -->
  <defs>
    <style>
      .st0 {
        fill: #e6e6e6;
      }
    </style>
  </defs>
  <g>
    <path class="st0" d="M174.1,207.1c0,25.6,0,51.3,0,76.9,0,.5,1,.3,1.4.3,0,.4,0,1.4,0,1.4s-1.1,0-1.4,0-1,0-1.4,0c-12.4.3-24.8-.3-37.2,0,0-14.8,0-29.5,0-44.3-.5,0-1,0-1.4,0s-1,0-1.4,0c0-.4,0-1.3,0-1.4s-1.1,0-1.4,0c-.9,0-2,0-2.9,0s-1.3,0-1.4,0,0,1,0,1.4,0,1,0,1.4c-.5,0-1,0-1.4,0s-1.3-.3-1.4.3c-.3,1-.1,7.1,0,8.6s-.2,1.2,1.4,1.2c0,.5,0,1,0,1.4-.5,0-1,0-1.4,0s-1.3-.3-1.4.3c-.2.9,0,5.8,0,7.1s-.2,1.2,1.4,1.2c0,.5,0,1,0,1.4-.5,0-1,0-1.4,0s-1.3-.3-1.4.3-.1,3.9,0,4,1.1,0,1.4,0v1.4c-.4,0-1.1-.2-1.4,0s0,1,0,1.4c-1.5-.1-1.3-.2-1.4,1.2s-.1,4.4,0,4.6,1.1,0,1.4,0c0,.5,0,1,0,1.4-.5,0-1,0-1.4,0s-1.4,0-1.4,0c-.2.3,0,6,0,7.1-14.2.5-28.4-.4-42.6,0l-1.7-1.5v-1.4c0-.5,0-1,0-1.4.5,0,1,0,1.4,0s1.4,0,1.4,0c.1-.2,0-3.5,0-4.3.4,0,1.4,0,1.4,0,.2-.2.1-5,0-5.4s-.9-.3-1.4-.3c0-.5,0-1,0-1.4.4,0,1.3,0,1.4,0s0,.7,0,.8c2.2,1.7,1.1-3.7,1.3-4.8s1.4,0,1.5-.5c.3-1.3,0-3.9,0-5.5.4,0,1.4,0,1.4,0,.2-.3-.2-3.2,0-4s1.4,0,1.5-.5c.3-1.3,0-3.9,0-5.5.4,0,1.4,0,1.4,0,.2-.2,0-4.8,0-5.7s.1-4.1,0-4.3-1.1,0-1.4,0-1,0-1.4,0-1.3,0-1.4,0,0,1,0,1.4c-.5,0-1,0-1.4,0-2.3,0-1.3.5-1.4,2.9-2.3,0-1.3.5-1.4,2.9-1.6,0-2,.4-1.4,2.6s.9.3,1.4.3c0,.5,0,1,0,1.4-1.9-.2-1.3,0-1.4,1.4s0,1,0,1.4c-.5,0-1,0-1.4,0-2.3,0-1.3.5-1.4,2.9-2.3,0-1.3.5-1.4,2.9-2.3,0-1.3.5-1.4,2.9-.4,0-1.4,0-1.4,0-.2.3.3,2.5,0,2.8s-1.3-.3-1.4.3c-.4,2.3-.2,2.5,1.5,2.6,0,.5,0,1,0,1.4-.4,0-1.3,0-1.4,0s0,1,0,1.4,0,1,0,1.4c-.4,0-1.3,0-1.4,0s0,1,0,1.4,0,1,0,1.4c-.4,0-1.3,0-1.4,0s0,1,0,1.4,0,1,0,1.4c-.5,0-1,0-1.4,0-2.3,0-1.3.5-1.4,2.9-2.3,0-1.3.5-1.4,2.9-2.6.3-.9,1.3-1.7,1.5H16.9c0-1,.2-5.5,0-5.8s-1.1,0-1.4,0c0-.5,0-1,0-1.4,1.8.2,1.3,0,1.4-1.4.5,0,1,0,1.4,0s1.3,0,1.4,0,0-1,0-1.4,0-1,0-1.4,0-1.4,0-1.4,1.1,0,1.4,0,1.3,0,1.4,0,0-1,0-1.4,0-1,0-1.4,0-1.4,0-1.4,1.1,0,1.4,0,1.1.2,1.4,0,0-1,0-1.4c2.4-.2.9-.7,1.5-1.3,1.1-1.1,1.1,1.4,1.3-3s0-1,0-1.4,0-1.4,0-1.4,1.1,0,1.4,0,1.1.2,1.4,0,0-1,0-1.4c2.3,0,1.3-.6,1.4-2.9s0-1,0-1.4,0-1,0-1.4c.4,0,1.3,0,1.4,0s0-1,0-1.4,0-1,0-1.4c.4,0,1.3,0,1.4,0s0-1.1,0-1.4,0-1,0-1.4c.4,0,1.2.1,1.4,0s0-1,0-1.4,0-1,0-1.4h1.4c0,.4,0,1.4,0,1.4s1.4,0,1.4,0c.2-.2-.3-2.5,0-2.8s1.2.1,1.3,0c.3-.3-.2-2.5.1-2.8s1.3.3,1.4-.3c.2-1,0-2.8,0-4,2.3,0,1.3-.5,1.4-2.9.5,0,1.3.3,1.4-.3.6-2.2.2-2.5-1.4-2.6,0-.5,0-1,0-1.4.5,0,1,0,1.4,0,1.6,0,2-.4,1.4-2.6s-.9-.3-1.4-.3c0-.5,0-1,0-1.4.5,0,1,0,1.4,0,2.3,0,1.3-.6,1.4-2.9.5,0,1.3.3,1.4-.3s.1-3.9,0-4-1.1,0-1.4,0c0-.5,0-1,0-1.4.5,0,1,0,1.4,0s1.4,0,1.4,0c.2-.3-.2-3.2,0-4s1.4,0,1.5-.5c.2-1,0-2.9,0-4h121.5Z"/>
    <path class="st0" d="M121.3,5.6c.5,0,1,0,1.4,0s1.4,0,1.4,0,0,1.1,0,1.4c.2,2.6,1,1,1.4,1.4s-1.2,1.2,1.4,1.4c0,2.4-.8,2.8,1.4,2.9v135.5c0,.5,1,.2,1.4.3s1,0,1.4,0c0,.5,0,1,0,1.4s0,1.4,0,1.4c.6.6,14.7-.4,16.9,0,.5,0,.3-1,.3-1.4.5,0,1,0,1.4,0,0,.5,0,1,0,1.4s0,1.4,0,1.4c.2.1,3.5,0,4.3,0s1,0,1.4,0,1,0,1.4,0,1,0,1.4,0c0,.5,0,1,0,1.4s-.1,1.2,0,1.4,1,0,1.4,0c.2,2.3.3,1.3,2.9,1.4,0,.4-.2,1.1,0,1.4s1,0,1.4,0c0,.4-.2,1,0,1.3s.9,0,1.3,0c0,.4-.2,1.1,0,1.4s1,0,1.4,0,1.4,0,1.4,0,0,1.1,0,1.4,0,1,0,1.4c.1,2.4-.9,2.8,1.4,2.9,0,2.4-.8,2.8,1.4,2.9,0,.8-.2,5.1,0,5.2,1.1,1,1.3-.9,1.4-1s1.1,0,1.4,0c0,.5,0,1,0,1.4-1.7,0-1.3-.3-1.4,1.2-.2,2.9.2,6,0,8.8H55.5c-.1-2,.2-4,0-6s.2-1.2-1.4-1.2c0-.5,0-1,0-1.4.5,0,1,0,1.4,0s1,.9,1.4.5,0-5.2,0-6.2c1.7,0,2-.5,1.4-2.6s-.9-.3-1.4-.3c0-.5,0-1,0-1.4.4,0,1.3,0,1.4,0s0-1.1,0-1.4,0-1.4,0-1.4,1.1,0,1.4,0,1.1.2,1.4,0,0-1,0-1.4c2.4-.2.9-.7,1.5-1.3,1.5-1.5,2.8-2.8,4.3-4.3s1.1,1,1.3-1.5,0-1.4,0-1.4,1.1,0,1.4,0,1,0,1.4,0c2.4-.1,2.8.9,2.9-1.4s0-1,0-1.4c.5,0,1,0,1.4,0,0,.4,0,1.4,0,1.4.2.1,3.7.1,4,0,.5-.2.2-.9.3-1.4,2.5,0,17.9.6,18.6,0s0-1.1,0-1.4,0-1,0-1.4c.5,0,1,0,1.4,0s1.4.3,1.4-.3V12.8c2.3,0,1.3-.5,1.4-2.9.4,0,1.1.2,1.4,0s0-1,0-1.4c.4,0,1.1.2,1.4,0s0-1,0-1.4c2.4,0,2.8.8,2.9-1.4,4.2-.1,8.6-.1,12.9,0Z"/>
    <path class="st0" d="M99.8,15.6c-.4,44.3.3,88.6,0,132.9-.5,0-1,0-1.4,0,0,.5,0,1,0,1.4h-8.6v-1.4c2.8,0,5.7,0,8.6,0,1.4-44-1.2-88.8,0-132.9h1.4Z"/>
    <path class="st0" d="M131.3,17c.7,43.3-.7,86.7,0,130,0,.5,0,1,0,1.4-.5,0-1,0-1.4,0-.4-43.8.5-87.7,0-131.5.5,0,1,0,1.4,0Z"/>
    <path class="st0" d="M131.3,17c.4,0,1.4-.2,1.4.3v128.6s-1.4,1.2-1.4,1.2c-.7-43.3.7-86.7,0-130Z"/>
    <path class="st0" d="M51.2,204.2c.1-.1-.3-1.3.3-1.5h123.8c.5.1.2,1,.3,1.5H51.2c0,.5,0,1,0,1.4h-1.4c.2-2.6,1-1,1.4-1.4Z"/>
    <path class="st0" d="M54.1,187.1h121.5c-.1.1.3,1.3-.3,1.5H52.9c-.5,0-.2-1-.3-1.5h1.4Z"/>
    <path class="st0" d="M74.1,287.1h44.3c-.1.1.3,1.3-.3,1.5h-45.5c0-.5,0-1,0-1.5h1.4Z"/>
    <path class="st0" d="M61.2,285.7c-.3,2.6-1,1-1.4,1.4s.3,1.3-.3,1.5H17.2c-.6-.2-.1-1.4-.3-1.5h42.9c0-.5,0-1,0-1.4h1.4Z"/>
    <path class="st0" d="M134.1,244.2v42.9c.5,0,1,0,1.4,0,12,.4,25.1.3,37.2,0,0,.5,0,1,0,1.4h-38.3c-.6-.1-.1-1.3-.3-1.4s-1.3.3-1.5-.3c0-14.2.2-28.4,0-42.6h1.4Z"/>
    <path class="st0" d="M177,232.3c0,9.2,0,18.4,0,27.6h-1.4c0-9.2,0-18.4,0-27.6h1.4Z"/>
    <path class="st0" d="M177,260c0,7.6.2,15.3,0,22.9h-1.4c.2-7.6,0-15.3,0-22.9h1.4Z"/>
    <path class="st0" d="M175.6,204.2c.4,0,1.3-.2,1.5.3.6,2.1,0,11.1,0,14h-1.4c0-4.3.1-8.6,0-12.9s0-1,0-1.4Z"/>
    <path class="st0" d="M177,218.5c0,4.6,0,9.2,0,13.8h-1.4c0-4.6,0-9.2,0-13.8h1.4Z"/>
    <path class="st0" d="M67,155.7c.5,0,1,0,1.4,0-.2,2.5-.6.8-1.3,1.5-1.4,1.5-2.8,2.8-4.3,4.3s.8,1.1-1.5,1.3c0-.5,0-1,0-1.4s0-1,0-1.4c.4,0,1.1.2,1.4,0s0-1,0-1.4c.3,0,1,.2,1.3,0s0-1,0-1.3c1-.2,1.7.5,1.4-1.4.5,0,1,0,1.4,0Z"/>
    <path class="st0" d="M42.7,235.7c0,1.2.2,3,0,4s-1.2,0-1.4.3c-.3.3.2,2.5-.1,2.8s-1.2-.1-1.3,0c-.3.3.2,2.6,0,2.8s-1.4,0-1.4,0,0-1.1,0-1.4,0-1,0-1.4,0-1,0-1.4c1.9.2,1.3,0,1.4-1.4s0-1,0-1.4c.4,0,1.3,0,1.4,0s0-1,0-1.4,0-1,0-1.4c.5,0,1,0,1.4,0Z"/>
    <path class="st0" d="M84.1,250c0,1.5.3,4.2,0,5.5s-1.4,0-1.5.5.3,3.8,0,4-1.1,0-1.4,0c0,1.5.3,4.2,0,5.5s-1.4,0-1.5.5c-.2,1.2.9,6.5-1.3,4.8s0-.8,0-.8v-4.3c0-.5,0-1,0-1.4,1.9.2,1.3,0,1.4-1.4s0-1,0-1.4,0-1,0-1.4c.5,0,1,0,1.4,0,0-.5,0-1,0-1.4s0-1,0-1.4,0-1,0-1.4,0-1,0-1.4c1.9.2,1.3,0,1.4-1.4s0-1.9,0-2.9c.5,0,1,0,1.4,0Z"/>
    <path class="st0" d="M52.7,205.7c0,.5,0,1,0,1.4,0,1.2.2,3.1,0,4s-1.4,0-1.5.5.3,3.8,0,4-1.1,0-1.4,0v-4.3c0-.5,0-1,0-1.4,1.9.2,1.3,0,1.4-1.4s0-1.9,0-2.9h1.4Z"/>
    <path class="st0" d="M139.8,148.5v1.4h-8.6c0-.5,0-1,0-1.4,2.8,0,5.7,0,8.6,0Z"/>
    <path class="st0" d="M69.8,262.8c0,.5,0,1,0,1.4s0,1,0,1.4,0,1,0,1.4c-1.9-.2-1.3,0-1.4,1.4-1.7,0-1.9-.3-1.5-2.6s1.2,0,1.4-.3c.3-.3-.2-2.6,0-2.8s1.1,0,1.4,0Z"/>
    <path class="st0" d="M57,168.5c.5,0,1.3-.2,1.4.3.6,2,.2,2.6-1.4,2.6,0,1,.2,6,0,6.2-.4.4-1.4-.5-1.4-.5v-4.3c0-.5,0-1,0-1.4.5,0,1,0,1.4,0,0-.5,0-1,0-1.4s0-1,0-1.4Z"/>
    <path class="st0" d="M127,242.8c0,1.9,0,3.8,0,5.7h-1.4v-5.7c.5,0,1,0,1.4,0Z"/>
    <path class="st0" d="M84.1,148.5v1.4c-1.4,0-2.9,0-4.3,0,0-.4,0-1.4,0-1.4.2-.1,3.5,0,4.3,0Z"/>
    <path class="st0" d="M144.1,148.5c.8,0,4.1-.1,4.3,0s0,1.1,0,1.4c-1.4,0-2.9,0-4.3,0v-1.4Z"/>
    <path class="st0" d="M54.1,177.1c0,.5,0,1,0,1.4,0,1,0,1.9,0,2.9h-1.4c0-.8-.1-4.1,0-4.3s1.1,0,1.4,0Z"/>
    <path class="st0" d="M175.6,178.5c0,1.4,0,2.9,0,4.3h-1.4c0-1.4,0-2.9,0-4.3h1.4Z"/>
    <path class="st0" d="M144.1,148.5v1.4c-1.4,0-2.9,0-4.3,0v-1.4c1.4,0,2.9,0,4.3,0Z"/>
    <path class="st0" d="M117,2.8v1.4c-1.4,0-2.9,0-4.3,0v-1.4c1.4,0,2.9,0,4.3,0Z"/>
    <path class="st0" d="M84.1,240c.4,0,1.4,0,1.4,0,.1.2,0,3.5,0,4.3-.5,0-1,0-1.4,0v-4.3Z"/>
    <path class="st0" d="M89.8,148.5v1.4c-1.4,0-2.9,0-4.3,0v-1.4c1.4,0,2.9,0,4.3,0Z"/>
    <path class="st0" d="M131.3,240v1.4c-1,0-1.9,0-2.9,0,0,.4,0,1.4,0,1.4s-1,0-1.4,0c0-.5,0-1,0-1.4h1.4c0-.5,0-1,0-1.4.9,0,2,0,2.9,0Z"/>
    <path class="st0" d="M51.2,205.7c0,.9,0,1.9,0,2.9h-1.4c0-.9,0-1.9,0-2.9h1.4Z"/>
    <path class="st0" d="M79.8,149.9c0,.5,0,1,0,1.4-1,0-1.9,0-2.9,0v-1.4c1,0,1.9,0,2.9,0Z"/>
    <path class="st0" d="M84.1,244.2c0,1,0,1.9,0,2.9h-1.4c0-2.4-.8-2.7,1.4-2.9Z"/>
    <path class="st0" d="M84.1,247.1c0,1,0,1.9,0,2.9-.5,0-1,0-1.4,0,0-1,0-1.9,0-2.9h1.4Z"/>
    <path class="st0" d="M82.7,250c0,.9,0,1.9,0,2.9h-1.4c0-2.4-.8-2.8,1.4-2.9Z"/>
    <path class="st0" d="M127,251.4c0,2.4.8,2.8-1.4,2.9,0-.5,0-1,0-1.4s0-1,0-1.4h1.4Z"/>
    <path class="st0" d="M112.7,2.8v1.4c-1,0-1.9,0-2.9,0v-1.4c.9,0,1.9,0,2.9,0Z"/>
    <path class="st0" d="M125.5,255.7c0,1,0,1.9,0,2.9h-1.4v-2.9h1.4Z"/>
    <path class="st0" d="M119.8,2.8v1.4c-1,0-1.9,0-2.9,0v-1.4c.9,0,1.9,0,2.9,0Z"/>
    <path class="st0" d="M125.5,261.4c0,2.4.8,2.8-1.4,2.9,0-.5,0-1,0-1.4s0-1,0-1.4h1.4Z"/>
    <path class="st0" d="M48.4,215.7c0,.5,0,1,0,1.4s0,1,0,1.4h-1.4c0-2.4-.8-2.8,1.4-2.9Z"/>
    <path class="st0" d="M55.5,174.2v2.9c-.4,0-1,0-1.4,0,0-.9,0-1.9,0-2.9h1.4Z"/>
    <path class="st0" d="M122.7,270c0,1,0,1.9,0,2.9h-1.4c0-.5,0-1,0-1.4s-.2-1.1,0-1.4,1,0,1.4,0Z"/>
    <path class="st0" d="M77,271.4c0,1,0,1.9,0,2.9h-1.4c0-.9,0-1.9,0-2.9.5,0,1,0,1.4,0Z"/>
    <path class="st0" d="M174.1,174.2c2.2,0,1.3.6,1.4,2.9h-1.4c0-.5,0-1,0-1.4s0-1,0-1.4Z"/>
    <path class="st0" d="M77,274.3c0,1,0,1.9,0,2.9-.5,0-1,0-1.4,0,0-.5,0-1,0-1.4s0-1,0-1.4h1.4Z"/>
    <path class="st0" d="M122.7,274.3c0,.9,0,1.9,0,2.9-.5,0-1,0-1.4,0,0-1,0-1.9,0-2.9h1.4Z"/>
    <path class="st0" d="M124.1,265.7c0,.9,0,1.9,0,2.9-.5,0-1,0-1.4,0v-2.9h1.4Z"/>
    <path class="st0" d="M175.6,182.8c0,.5,0,1,0,1.4s0,1,0,1.4c-2.1.5-1.4-1.1-1.4-2.9h1.4Z"/>
    <path class="st0" d="M15.5,281.4c0,.9,0,1.9,0,2.9h-1.4c0-.9,0-2,0-2.9h1.4Z"/>
    <path class="st0" d="M74.1,282.8v2.9h-1.4c0-1.8-.7-3.3,1.4-2.9Z"/>
    <path class="st0" d="M121.3,282.8c-.2,4.7-.7,2.1-1.4,2.9,0-.1,0-2.3,0-2.9h1.4Z"/>
    <path class="st0" d="M54.1,184.2v2.9h-1.4c0-.9,0-1.9,0-2.9h1.4Z"/>
    <path class="st0" d="M175.6,184.2c1.7-.6,1.8,1.2,1.5,2.6s-1.3.1-1.5.3c0-.5,0-1,0-1.4s0-1,0-1.4Z"/>
    <path class="st0" d="M131.3,14.2c0,.9,0,1.9,0,2.9-.5,0-1,0-1.4,0,0-1,0-1.9,0-2.9h1.4Z"/>
    <path class="st0" d="M121.3,278.5c0,1,0,1.9,0,2.9h-1.4v-2.9c.5,0,1,0,1.4,0Z"/>
    <path class="st0" d="M167,159.9c0,0,1-.2,1.3,0s0,1.2,0,1.3c0,0-1.1,0-1.4,0,0-.4,0-1.3,0-1.4Z"/>
    <path class="st0" d="M61.2,161.4c0,.5,0,1,0,1.4-.5,0-1,0-1.4,0,0-.5,0-1,0-1.4h1.4Z"/>
    <path class="st0" d="M168.4,161.4c.4.5,1.2-1.2,1.4,1.4h-1.4c0-.4,0-1.4,0-1.4Z"/>
    <path class="st0" d="M59.8,162.8v1.4c-.4,0-1.4,0-1.4,0,.5-.5-1.2-1.2,1.4-1.4Z"/>
    <path class="st0" d="M169.8,162.8c0,.5,0,1,0,1.4-.5,0-1,0-1.4,0,0-.5,0-1,0-1.4h1.4Z"/>
    <path class="st0" d="M58.4,164.2c0,0,0,1.1,0,1.4h-1.4c.3-2.6,1-1,1.4-1.4Z"/>
    <path class="st0" d="M169.8,164.2c.4,0,1.4,0,1.4,0s0,1,0,1.4h-1.4c0-.5,0-1,0-1.4Z"/>
    <path class="st0" d="M58.4,165.7c0,.4,0,1.3,0,1.4s-1.1,0-1.4,0c0-.5,0-1,0-1.4h1.4Z"/>
    <path class="st0" d="M171.3,165.7c0,.5,0,1,0,1.4-.5,0-1,0-1.4,0,0-.5,0-1,0-1.4h1.4Z"/>
    <path class="st0" d="M57,167.1c0,.5,0,1,0,1.4-.5,0-1,0-1.4,0,0-.4,0-1.3,0-1.4s1.1,0,1.4,0Z"/>
    <path class="st0" d="M171.3,167.1c.4,0,1.3,0,1.4,0s0,1,0,1.4h-1.4c0-.5,0-1,0-1.4Z"/>
    <path class="st0" d="M57,168.5c0,.5,0,1,0,1.4h-1.4c0-.5,0-1,0-1.4.5,0,1,0,1.4,0Z"/>
    <path class="st0" d="M172.7,168.5c0,.5,0,1,0,1.4-.5,0-1,0-1.4,0,0-.5,0-1,0-1.4h1.4Z"/>
    <path class="st0" d="M57,169.9c0,.5,0,1,0,1.4-.5,0-1,0-1.4,0,0-.5,0-1,0-1.4h1.4Z"/>
    <path class="st0" d="M172.7,169.9c.4,0,1.3,0,1.4,0s0,1,0,1.4h-1.4c0-.5,0-1,0-1.4Z"/>
    <path class="st0" d="M174.1,171.4c0,.5,0,1,0,1.4h-1.4c0-.5,0-1,0-1.4h1.4Z"/>
    <path class="st0" d="M55.5,172.8v1.4h-1.4c.1-1.4-.5-1.6,1.4-1.4Z"/>
    <path class="st0" d="M174.1,172.8c0,.5,0,1,0,1.4-.4,0-1.3,0-1.4,0v-1.4h1.4Z"/>
    <path class="st0" d="M175.6,177.1c0,.5,0,1,0,1.4h-1.4c0-.5,0-1,0-1.4h1.4Z"/>
    <path class="st0" d="M54.1,181.4v1.4h-1.4c0-.5,0-1,0-1.4h1.4Z"/>
    <path class="st0" d="M54.1,182.8v1.4h-1.4c0-.5,0-1,0-1.4h1.4Z"/>
    <path class="st0" d="M51.2,208.5c-.1,1.4.5,1.6-1.4,1.4,0-.5,0-1,0-1.4h1.4Z"/>
    <path class="st0" d="M49.8,211.4v1.4h-1.4c.1-1.4-.5-1.6,1.4-1.4Z"/>
    <path class="st0" d="M49.8,212.8v1.4h-1.4c0-.5,0-1,0-1.4h1.4Z"/>
    <path class="st0" d="M49.8,214.2v1.4c-.5,0-1,0-1.4,0,0-.5,0-1,0-1.4h1.4Z"/>
    <path class="st0" d="M48.4,218.5c0,.5,0,1,0,1.4h-1.4c0-.5,0-1,0-1.4h1.4Z"/>
    <path class="st0" d="M48.4,220c0,.5,0,1,0,1.4-.5,0-1,0-1.4,0,0-.5,0-1,0-1.4h1.4Z"/>
    <path class="st0" d="M46.9,221.4v1.4h-1.4c0-.4,0-1.3,0-1.4s1,0,1.4,0Z"/>
    <path class="st0" d="M46.9,222.8v1.4c-.5,0-1,0-1.4,0,0-.5,0-1,0-1.4h1.4Z"/>
    <path class="st0" d="M45.5,225.7v1.4h-1.4c0-.4,0-1.3,0-1.4s1.1,0,1.4,0Z"/>
    <path class="st0" d="M45.5,227.1v1.4c-.5,0-1,0-1.4,0,0-.5,0-1,0-1.4h1.4Z"/>
    <path class="st0" d="M44.1,228.5c0,.5,0,1,0,1.4-.5,0-1,0-1.4,0,0-.4,0-1.3,0-1.4s1,0,1.4,0Z"/>
    <path class="st0" d="M44.1,230c0,.5,0,1,0,1.4h-1.4c0-.5,0-1,0-1.4.5,0,1,0,1.4,0Z"/>
    <path class="st0" d="M44.1,231.4c0,.5,0,1,0,1.4-.5,0-1,0-1.4,0,0-.5,0-1,0-1.4h1.4Z"/>
    <path class="st0" d="M42.7,232.8c0,.5,0,1,0,1.4h-1.4c0-.4,0-1.3,0-1.4s1,0,1.4,0Z"/>
    <path class="st0" d="M42.7,234.2c0,.5,0,1,0,1.4-.5,0-1,0-1.4,0,0-.5,0-1,0-1.4h1.4Z"/>
    <path class="st0" d="M41.2,235.7c0,.5,0,1,0,1.4h-1.4c0-.4,0-1.3,0-1.4s1,0,1.4,0Z"/>
    <path class="st0" d="M41.2,237.1c0,.4,0,1.3,0,1.4s-1.1,0-1.4,0c0-.5,0-1,0-1.4h1.4Z"/>
    <path class="st0" d="M39.8,238.5c0,.5,0,1,0,1.4h-1.4c0-.4,0-1.3,0-1.4s1.1,0,1.4,0Z"/>
    <path class="st0" d="M39.8,240c-.1,1.4.5,1.6-1.4,1.4,0-.5,0-1,0-1.4h1.4Z"/>
    <path class="st0" d="M82.7,240v1.4c-.5,0-1,0-1.4,0,0-.4,0-1.3,0-1.4s1,0,1.4,0Z"/>
    <path class="st0" d="M84.1,240v1.4h-1.4v-1.4c.5,0,1,0,1.4,0Z"/>
    <path class="st0" d="M109.8,2.8v1.4c-.5,0-1,0-1.4,0,0-.4,0-1.3,0-1.4s1.1,0,1.4,0Z"/>
    <path class="st0" d="M119.8,2.8c.4,0,1.3,0,1.4,0s0,1.1,0,1.4c-.5,0-1,0-1.4,0v-1.4Z"/>
    <path class="st0" d="M131.3,240c.4,0,1.3,0,1.4,0s0,1,0,1.4c-.5,0-1,0-1.4,0v-1.4Z"/>
    <path class="st0" d="M107,4.2v1.4c-.4,0-1.4,0-1.4,0,.5-.4-1.2-1.2,1.4-1.4Z"/>
    <path class="st0" d="M81.2,241.4c0,.5,0,1,0,1.4h-1.4v-1.4c.5,0,1,0,1.4,0Z"/>
    <path class="st0" d="M108.4,4.2c0,.5,0,1,0,1.4-.5,0-1,0-1.4,0v-1.4c.5,0,1,0,1.4,0Z"/>
    <path class="st0" d="M134.1,241.4v1.4h-1.4c0-.5,0-1,0-1.4.5,0,1,0,1.4,0Z"/>
    <path class="st0" d="M122.7,4.2v1.4c-.5,0-1,0-1.4,0,0-.5,0-1,0-1.4.5,0,1,0,1.4,0Z"/>
    <path class="st0" d="M38.4,242.8c0,.5,0,1,0,1.4h-1.4c.1-1.4-.5-1.6,1.4-1.4Z"/>
    <path class="st0" d="M81.2,242.8c0,.4,0,1.3,0,1.4s-1,0-1.4,0c0-.5,0-1,0-1.4h1.4Z"/>
    <path class="st0" d="M122.7,4.2c2.7.3,1,1,1.4,1.4,0,0-1.1,0-1.4,0v-1.4Z"/>
    <path class="st0" d="M105.5,5.6c0,0,0,1.1,0,1.4-.4,0-1.4,0-1.4,0,0,0-.2-1,0-1.3s1.2,0,1.3,0Z"/>
    <path class="st0" d="M134.1,242.8v1.4h-1.4c0-.5,0-1,0-1.4h1.4Z"/>
    <path class="st0" d="M124.1,5.6c0,0,1-.2,1.3,0s0,1.2,0,1.3c0,0-1.1,0-1.4,0,0-.4,0-1.4,0-1.4Z"/>
    <path class="st0" d="M79.8,244.2c0,.5,0,1,0,1.4h-1.4c0-.5,0-1,0-1.4.5,0,1,0,1.4,0Z"/>
    <path class="st0" d="M104.1,7c0,0,0,1.1,0,1.4-.4,0-1.3,0-1.4,0,0,0-.2-1,0-1.3s1.2,0,1.3,0Z"/>
    <path class="st0" d="M36.9,245.7c0,.4.2,1.2,0,1.4s-1,0-1.4,0c.1-1.3-.4-1.7,1.4-1.4Z"/>
    <path class="st0" d="M79.8,245.7c0,.4,0,1.3,0,1.4s-1,0-1.4,0c0-.5,0-1,0-1.4h1.4Z"/>
    <path class="st0" d="M35.5,247.1c0,.5,0,1,0,1.4h-1.4c0-.4-.2-1.1,0-1.4s1,0,1.4,0Z"/>
    <path class="st0" d="M125.5,7c0,0,1-.2,1.3,0s0,1.2,0,1.3c-.1-.1-1.3.1-1.4,0s.1-1.3,0-1.4Z"/>
    <path class="st0" d="M78.4,247.1c0,.5,0,1,0,1.4h-1.4c0-.5,0-1,0-1.4.5,0,1,0,1.4,0Z"/>
    <path class="st0" d="M102.7,8.5c0,0,0,1.1,0,1.4-.4,0-1.4,0-1.4,0,0,0-.2-1,0-1.3s1.2,0,1.3,0Z"/>
    <path class="st0" d="M35.5,248.5c0,.4,0,1.3,0,1.4s-1.1,0-1.4,0c0-.5,0-1,0-1.4h1.4Z"/>
    <path class="st0" d="M78.4,248.5c0,.4,0,1.3,0,1.4s-1.1,0-1.4,0c0-.5,0-1,0-1.4h1.4Z"/>
    <path class="st0" d="M127,248.5c0,.5,0,1,0,1.4h-1.4v-1.4h1.4Z"/>
    <path class="st0" d="M34.1,250c0,.5,0,1,0,1.4h-1.4c0-.4,0-1.3,0-1.4s1.1,0,1.4,0Z"/>
    <path class="st0" d="M127,250c0,.5,0,1,0,1.4h-1.4v-1.4h1.4Z"/>
    <path class="st0" d="M34.1,251.4c0,.4,0,1.3,0,1.4s-1.1,0-1.4,0c0-.5,0-1,0-1.4h1.4Z"/>
    <path class="st0" d="M77,251.4c0,.5,0,1,0,1.4h-1.4c.1-1.4-.5-1.6,1.4-1.4Z"/>
    <path class="st0" d="M127,8.5c0,0,1-.2,1.3,0s0,1.2,0,1.3c0,0-1.1,0-1.4,0,0-.4,0-1.4,0-1.4Z"/>
    <path class="st0" d="M32.7,252.8c0,.5,0,1,0,1.4h-1.4c0-.4,0-1.3,0-1.4s1.1,0,1.4,0Z"/>
    <path class="st0" d="M77,252.8c0,.4,0,1.3,0,1.4s-1,0-1.4,0c0-.5,0-1,0-1.4h1.4Z"/>
    <path class="st0" d="M82.7,252.8c-.1,1.4.5,1.6-1.4,1.4,0-.5,0-1,0-1.4h1.4Z"/>
    <path class="st0" d="M32.7,254.2c0,.5,0,1,0,1.4-.5,0-1,0-1.4,0,0-.5,0-1,0-1.4h1.4Z"/>
    <path class="st0" d="M101.2,9.9c0,0,0,1.1,0,1.4h-1.4c.3-2.7,1-1,1.4-1.4Z"/>
    <path class="st0" d="M75.5,254.2c0,.5,0,1,0,1.4h-1.4v-1.4c.5,0,1,0,1.4,0Z"/>
    <path class="st0" d="M128.4,9.9c.4.5,1.2-1.2,1.4,1.4h-1.4c0-.4,0-1.4,0-1.4Z"/>
    <path class="st0" d="M125.5,254.2c0,.5,0,1,0,1.4h-1.4v-1.4c.5,0,1,0,1.4,0Z"/>
    <path class="st0" d="M31.2,255.7c0,.5,0,1,0,1.4h-1.4c0-.4,0-1.3,0-1.4s1.1,0,1.4,0Z"/>
    <path class="st0" d="M101.2,11.3c0,.5,0,1,0,1.4-.5,0-1,0-1.4,0,0-.5,0-1,0-1.4h1.4Z"/>
    <path class="st0" d="M75.5,255.7c0,.4,0,1.3,0,1.4s-1,0-1.4,0c0-.5,0-1,0-1.4h1.4Z"/>
    <path class="st0" d="M81.2,255.7c0,.5,0,1,0,1.4h-1.4c.1-1.4-.5-1.6,1.4-1.4Z"/>
    <path class="st0" d="M129.8,11.3c0,.5,0,1,0,1.4-.5,0-1,0-1.4,0,0-.5,0-1,0-1.4h1.4Z"/>
    <path class="st0" d="M31.2,257.1c0,.5,0,1,0,1.4-.5,0-1,0-1.4,0,0-.5,0-1,0-1.4h1.4Z"/>
    <path class="st0" d="M99.8,12.8c0,.5,0,1,0,1.4h-1.4c0-.4,0-1.3,0-1.4s1,0,1.4,0Z"/>
    <path class="st0" d="M74.1,257.1c0,.5,0,1,0,1.4h-1.4c0-.5,0-1,0-1.4.5,0,1,0,1.4,0Z"/>
    <path class="st0" d="M81.2,257.1c0,.5,0,1,0,1.4h-1.4c0-.5,0-1,0-1.4h1.4Z"/>
    <path class="st0" d="M29.8,258.5v1.4c-.4,0-1.4,0-1.4,0,.5-.5-1.2-1.2,1.4-1.4Z"/>
    <path class="st0" d="M74.1,258.5c0,.4,0,1.3,0,1.4s-1,0-1.4,0c0-.5,0-1,0-1.4h1.4Z"/>
    <path class="st0" d="M81.2,258.5c0,.5,0,1,0,1.4-.5,0-1,0-1.4,0,0-.5,0-1,0-1.4h1.4Z"/>
    <path class="st0" d="M125.5,258.5c0,.5,0,1,0,1.4h-1.4v-1.4h1.4Z"/>
    <path class="st0" d="M28.4,260c0,0,0,1.1,0,1.4h-1.4c.2-2.6,1-1,1.4-1.4Z"/>
    <path class="st0" d="M129.8,12.8c.4,0,1.3,0,1.4,0s0,1.1,0,1.4h-1.4c0-.5,0-1,0-1.4Z"/>
    <path class="st0" d="M72.7,260c0,.5,0,1,0,1.4h-1.4c0-.5,0-1,0-1.4.5,0,1,0,1.4,0Z"/>
    <path class="st0" d="M79.8,260c0,.5,0,1,0,1.4h-1.4c0-.4,0-1.3,0-1.4s1,0,1.4,0Z"/>
    <path class="st0" d="M99.8,14.2c0,.5,0,1,0,1.4h-1.4c0-.5,0-1,0-1.4h1.4Z"/>
    <path class="st0" d="M125.5,260c0,.5,0,1,0,1.4h-1.4v-1.4h1.4Z"/>
    <path class="st0" d="M85.5,148.5v1.4c-.5,0-1,0-1.4,0v-1.4c.5,0,1,0,1.4,0Z"/>
    <path class="st0" d="M28.4,261.4c0,.5,0,1,0,1.4-.5,0-1,0-1.4,0,0-.5,0-1,0-1.4h1.4Z"/>
    <path class="st0" d="M72.7,261.4c0,.4,0,1.3,0,1.4s-1,0-1.4,0c0-.5,0-1,0-1.4h1.4Z"/>
    <path class="st0" d="M79.8,261.4c0,.5,0,1,0,1.4h-1.4c0-.5,0-1,0-1.4h1.4Z"/>
    <path class="st0" d="M75.5,149.9c0,.5,0,1,0,1.4-.5,0-1,0-1.4,0,0-.4,0-1.3,0-1.4s1,0,1.4,0Z"/>
    <path class="st0" d="M26.9,262.8c0,.4.2,1.2,0,1.4s-1,0-1.4,0c0-.4-.2-1.2,0-1.4s1,0,1.4,0Z"/>
    <path class="st0" d="M77,149.9v1.4c-.5,0-1,0-1.4,0,0-.5,0-1,0-1.4.5,0,1,0,1.4,0Z"/>
    <path class="st0" d="M151.3,149.9v1.4h-1.4c0-.5,0-1,0-1.4.5,0,1,0,1.4,0Z"/>
    <path class="st0" d="M152.7,149.9v1.4h-1.4v-1.4c.5,0,1,0,1.4,0Z"/>
    <path class="st0" d="M79.8,262.8c-.1,1.4.5,1.6-1.4,1.4,0-.5,0-1,0-1.4h1.4Z"/>
    <path class="st0" d="M25.5,264.3c0,.5,0,1,0,1.4h-1.4c0-.4,0-1.3,0-1.4s1.1,0,1.4,0Z"/>
    <path class="st0" d="M71.2,264.3c-.1,1.4.5,1.6-1.4,1.4,0-.5,0-1,0-1.4h1.4Z"/>
    <path class="st0" d="M152.7,149.9c.4,0,1.3,0,1.4,0s0,1.1,0,1.4c-.5,0-1,0-1.4,0v-1.4Z"/>
    <path class="st0" d="M124.1,264.3c0,.5,0,1,0,1.4h-1.4v-1.4c.5,0,1,0,1.4,0Z"/>
    <path class="st0" d="M25.5,265.7c0,.5,0,1,0,1.4-.5,0-1,0-1.4,0,0-.5,0-1,0-1.4h1.4Z"/>
    <path class="st0" d="M78.4,265.7v1.4h-1.4c.1-1.4-.5-1.6,1.4-1.4Z"/>
    <path class="st0" d="M72.7,151.4v1.4c-.5,0-1,0-1.4,0,0-.4,0-1.4,0-1.4s1,0,1.4,0Z"/>
    <path class="st0" d="M24.1,267.1v1.4c-.4,0-1.4,0-1.4,0,.5-.5-1.2-1.2,1.4-1.4Z"/>
    <path class="st0" d="M69.8,267.1c0,.5,0,1,0,1.4-.5,0-1,0-1.4,0,.1-1.4-.5-1.6,1.4-1.4Z"/>
    <path class="st0" d="M78.4,267.1v1.4h-1.4c0-.5,0-1,0-1.4h1.4Z"/>
    <path class="st0" d="M22.7,268.5c0,0,0,1.1,0,1.4h-1.4c.3-2.6,1-1,1.4-1.4Z"/>
    <path class="st0" d="M69.8,268.5c0,.4,0,1.3,0,1.4s-1.1,0-1.4,0c0-.5,0-1,0-1.4.5,0,1,0,1.4,0Z"/>
    <path class="st0" d="M78.4,268.5v1.4c-.1,0-1.1,0-1.4,0,0-.5,0-1,0-1.4h1.4Z"/>
    <path class="st0" d="M124.1,268.5c0,.4,0,1.3,0,1.4s-1.1,0-1.4,0v-1.4c.5,0,1,0,1.4,0Z"/>
    <path class="st0" d="M22.7,270c0,.5,0,1,0,1.4-.5,0-1,0-1.4,0,0-.5,0-1,0-1.4h1.4Z"/>
    <path class="st0" d="M68.4,270c0,.5,0,1,0,1.4h-1.4c0-.4,0-1.3,0-1.4s1.1,0,1.4,0Z"/>
    <path class="st0" d="M77,270c0,.5,0,1,0,1.4-.5,0-1,0-1.4,0,0-.4,0-1.3,0-1.4s1.1,0,1.4,0Z"/>
    <path class="st0" d="M74.1,151.4c0,.5,0,1,0,1.4h-1.4v-1.4c.5,0,1,0,1.4,0Z"/>
    <path class="st0" d="M21.2,271.4v1.4c-.4,0-1.4,0-1.4,0,.4-.4-1.2-1.3,1.4-1.4Z"/>
    <path class="st0" d="M68.4,271.4c0,.4,0,1.3,0,1.4s-1.1,0-1.4,0c0-.5,0-1,0-1.4h1.4Z"/>
    <path class="st0" d="M155.5,151.4v1.4c-.5,0-1,0-1.4,0,0-.5,0-1,0-1.4.5,0,1,0,1.4,0Z"/>
    <path class="st0" d="M155.5,151.4c1.4.1,1.6-.5,1.4,1.4-.5,0-1,0-1.4,0v-1.4Z"/>
    <path class="st0" d="M69.8,152.8v1.4c-.4,0-1.4,0-1.4,0,.5-.5-1.2-1.2,1.4-1.4Z"/>
    <path class="st0" d="M19.8,272.8c0,0,0,1.1,0,1.4h-1.4c.3-2.6,1-1,1.4-1.4Z"/>
    <path class="st0" d="M67,272.8c0,.5,0,1,0,1.4h-1.4c0-.4,0-1.3,0-1.4s1.1,0,1.4,0Z"/>
    <path class="st0" d="M122.7,272.8c0,.5,0,1,0,1.4h-1.4c0-.5,0-1,0-1.4h1.4Z"/>
    <path class="st0" d="M19.8,274.3c0,.5,0,1,0,1.4-.5,0-1,0-1.4,0,0-.5,0-1,0-1.4h1.4Z"/>
    <path class="st0" d="M67,274.3c0,.4,0,1.3,0,1.4s-1.1,0-1.4,0c0-.5,0-1,0-1.4h1.4Z"/>
    <path class="st0" d="M71.2,152.8c0,.5,0,1,0,1.4-.5,0-1,0-1.4,0v-1.4c.5,0,1,0,1.4,0Z"/>
    <path class="st0" d="M158.4,152.8c.4,0,1.3,0,1.4,0s0,1.1,0,1.4h-1.4c0-.5,0-1,0-1.4Z"/>
    <path class="st0" d="M18.4,275.7v1.4c-.5,0-1,0-1.4,0,0-.4-.2-1.1,0-1.4s1,0,1.4,0Z"/>
    <path class="st0" d="M65.5,275.7c0,.5,0,1,0,1.4h-1.4c0-.4,0-1.3,0-1.4s1.1,0,1.4,0Z"/>
    <path class="st0" d="M71.2,262.8c0,.5,0,1,0,1.4h-1.4c0-.5,0-1,0-1.4.5,0,1,0,1.4,0Z"/>
    <path class="st0" d="M16.9,277.1c0,1.3.4,1.6-1.4,1.4,0-.4-.2-1.1,0-1.4s1,0,1.4,0Z"/>
    <path class="st0" d="M65.5,277.1c0,.4,0,1.3,0,1.4s-1,0-1.4,0c0-.5,0-1,0-1.4h1.4Z"/>
    <path class="st0" d="M75.5,277.1v1.4h-1.4c0-.5,0-1,0-1.4h1.4Z"/>
    <path class="st0" d="M68.4,154.2c0,0,0,1.1,0,1.4-.5,0-1,0-1.4,0-.5-2.1,1.2-1.2,1.4-1.4Z"/>
    <path class="st0" d="M122.7,277.1c0,.4,0,1.3,0,1.4s-1,0-1.4,0c0-.5,0-1,0-1.4.5,0,1,0,1.4,0Z"/>
    <path class="st0" d="M64.1,278.5c0,.5,0,1,0,1.4h-1.4v-1.4c.5,0,1,0,1.4,0Z"/>
    <path class="st0" d="M75.5,278.5v1.4h-1.4c0-.5,0-1,0-1.4h1.4Z"/>
    <path class="st0" d="M161.3,154.2v1.4c-.5,0-1,0-1.4,0,0-.5,0-1,0-1.4.5,0,1,0,1.4,0Z"/>
    <path class="st0" d="M161.3,154.2c2.7.3,1,1,1.4,1.4,0,0-1.1,0-1.4,0v-1.4Z"/>
    <path class="st0" d="M15.5,280c0,.5,0,1,0,1.4h-1.4c0-.4,0-1.3,0-1.4s1.1,0,1.4,0Z"/>
    <path class="st0" d="M65.5,155.7c.3,2-.4,1.2-1.4,1.4,0,.3.2,1,0,1.3s-1,0-1.3,0c0,.4.2,1.1,0,1.4s-1,0-1.4,0c0-.4-.2-1.1,0-1.4s1,0,1.4,0c0-.4-.2-1,0-1.3s1,0,1.3,0c0-.3-.2-1.1,0-1.3s1,0,1.4,0Z"/>
    <path class="st0" d="M64.1,280c0,.4,0,1.3,0,1.4s-1,0-1.4,0c0-.5,0-1,0-1.4h1.4Z"/>
    <path class="st0" d="M75.5,280v1.4c-.5,0-1,0-1.4,0,0-.5,0-1,0-1.4h1.4Z"/>
    <path class="st0" d="M162.7,155.7c0,0,1-.2,1.3,0s0,1.2,0,1.3c0,0-1.1,0-1.4,0,0-.4,0-1.4,0-1.4Z"/>
    <path class="st0" d="M62.7,281.4c0,.5,0,1,0,1.4h-1.4c0-.5,0-1,0-1.4.5,0,1,0,1.4,0Z"/>
    <path class="st0" d="M121.3,281.4c0,.5,0,1,0,1.4h-1.4c0-.5,0-1,0-1.4h1.4Z"/>
    <path class="st0" d="M62.7,282.8c0,.4,0,1.3,0,1.4s-1.1,0-1.4,0c0-.5,0-1,0-1.4h1.4Z"/>
    <path class="st0" d="M164.1,157.1c0,0,1-.2,1.3,0s0,1.2,0,1.3,1-.2,1.3,0,0,1.2,0,1.3c0,0-1.1,0-1.4,0,0-.4,0-1.3,0-1.4s-1.1,0-1.4,0c0-.4,0-1.3,0-1.4Z"/>
    <path class="st0" d="M177,282.8c0,.5,0,1,0,1.4-.5,0-1,0-1.4,0,0-.5,0-1,0-1.4h1.4Z"/>
    <path class="st0" d="M15.5,284.3c0,.4,0,1.4,0,1.4s1.1,0,1.4,0c0,.5,0,1,0,1.4,0,0-1,.2-1.3,0s0-1.2,0-1.3c-.4-.4-1.2,1.2-1.4-1.4h1.4Z"/>
    <path class="st0" d="M61.2,284.3c0,.5,0,1,0,1.4h-1.4c0-.5,0-1,0-1.4.5,0,1,0,1.4,0Z"/>
    <path class="st0" d="M177,284.3c-.2,2.6-1,1-1.4,1.4s1.2,1.2-1.4,1.4v-1.4c.4,0,1.4,0,1.4,0s0-1.1,0-1.4c.5,0,1,0,1.4,0Z"/>
    <path class="st0" d="M74.1,285.7v1.4h-1.4c0-.5,0-1,0-1.4h1.4Z"/>
    <path class="st0" d="M119.8,285.7c0,0,.2,1,0,1.3s-1.2,0-1.3,0c0-.5,0-1,0-1.4.4,0,1.4,0,1.4,0Z"/>
    <path class="st0" d="M174.1,285.7v1.4c-.5,0-1,0-1.4,0,0-.5,0-1,0-1.4.5,0,1,0,1.4,0Z"/>
    <path class="st0" d="M61.2,159.9c0,.5,0,1,0,1.4h-1.4c0-.4,0-1.3,0-1.4s1.1,0,1.4,0Z"/>
    <path class="st0" d="M75.5,275.7c0,.5,0,1,0,1.4h-1.4c.1-1.4-.5-1.6,1.4-1.4Z"/>
    <path class="st0" d="M174.1,205.7v1.4H52.7c0-.5,0-1,0-1.4h121.5Z"/>
    <path class="st0" d="M175.6,205.7c.1,4.3,0,8.6,0,12.9s0,9.2,0,13.8c0,9.2,0,18.4,0,27.6s.2,15.3,0,22.9,0,1,0,1.4c-.4,0-1.4.2-1.4-.3,0-25.6,0-51.3,0-76.9v-1.4h1.4Z"/>
    <path class="st0" d="M74.1,284.3l1.7,1.5c14.2-.4,28.4.4,42.6,0,0,.5,0,1,0,1.4h-44.3v-2.9Z"/>
    <path class="st0" d="M134.1,241.4c.5,0,1,0,1.4,0,0,14.8,0,29.5,0,44.3v1.4c-.5,0-1,0-1.4,0v-45.7Z"/>
    <path class="st0" d="M59.8,284.3c0,.5,0,1,0,1.4s0,1,0,1.4H16.9c0-.5,0-1,0-1.4h41.2c.8-.1-.9-1.2,1.7-1.4Z"/>
    <path class="st0" d="M172.7,285.7c0,.5,0,1,0,1.4-12,.3-25.1.4-37.2,0v-1.4c12.4-.3,24.8.3,37.2,0Z"/>
    <path class="st0" d="M125.5,242.8v8.6c0,.5,0,1,0,1.4-1.7,0-1.3.3-1.4-1.2s-.3-7.5,0-8.6.9-.2,1.4-.3Z"/>
    <path class="st0" d="M124.1,254.2v7.1c0,.5,0,1,0,1.4-1.7,0-1.3.3-1.4-1.2s-.3-6.2,0-7.1.9-.2,1.4-.3Z"/>
    <path class="st0" d="M119.8,278.5v2.9c0,.5,0,1,0,1.4s0,2.7,0,2.9-1.1,0-1.4,0c0-1.2-.2-6.9,0-7.1s1.1,0,1.4,0Z"/>
    <path class="st0" d="M85.5,244.2c0,.9.2,5.5,0,5.7s-1.1,0-1.4,0c0-1,0-1.9,0-2.9s0-1.9,0-2.9c.5,0,1,0,1.4,0Z"/>
    <path class="st0" d="M28.4,262.8c-.2,4.3-.2,1.9-1.3,3s.9,1.1-1.5,1.3c0-.5,0-1,0-1.4s0-1,0-1.4c.4,0,1.2.2,1.4,0s0-1,0-1.4c.5,0,1,0,1.4,0Z"/>
    <path class="st0" d="M77,271.4c.5,0,1.3-.2,1.4.3s.2,5.2,0,5.4-1.1,0-1.4,0c0,.8.1,4.1,0,4.3s-1.1,0-1.4,0v-4.3c.5,0,1,0,1.4,0,0-1,0-1.9,0-2.9s0-1.9,0-2.9Z"/>
    <path class="st0" d="M121.3,271.4c0,.5,0,1,0,1.4s0,1,0,1.4c0,1,0,1.9,0,2.9-.4,0-1.4,0-1.4,0-.2-.2,0-3.9,0-4.6.1-1.4,0-1.3,1.4-1.2Z"/>
    <path class="st0" d="M15.5,280c.4,0,1.4,0,1.4,0,.2.2,0,4.8,0,5.7-.4,0-1.4,0-1.4,0s0-1.1,0-1.4c0-.9,0-1.9,0-2.9s0-1,0-1.4Z"/>
    <path class="st0" d="M122.7,264.3v4.3c-.4,0-1.4,0-1.4,0-.1-.2-.1-3.7,0-4,.2-.5.9-.2,1.4-.3Z"/>
    <path class="st0" d="M48.4,217.1c.4,0,1.3-.1,1.4,0,.1.2.1,3.7,0,4-.2.5-.9.2-1.4.3,0-.5,0-1,0-1.4s0-1,0-1.4,0-1,0-1.4Z"/>
    <path class="st0" d="M79.8,241.4v1.4c0,.5,0,1,0,1.4-.5,0-1,0-1.4,0,0,.5,0,1,0,1.4s0,1,0,1.4c-.5,0-1,0-1.4,0,0,.5,0,1,0,1.4s0,1,0,1.4c-.5,0-1.3.2-1.4-.3-.6-2.1-.2-2.5,1.4-2.6,0-2.4-.8-2.8,1.4-2.9,0-2.4-.8-2.8,1.4-2.9Z"/>
    <path class="st0" d="M74.1,254.2v1.4c0,.5,0,1,0,1.4-.5,0-1,0-1.4,0,0,.5,0,1,0,1.4s0,1,0,1.4c-.5,0-1,0-1.4,0,0,.5,0,1,0,1.4s0,1,0,1.4c-.5,0-1,0-1.4,0,0-2.4-.8-2.8,1.4-2.9,0-2.4-.8-2.8,1.4-2.9,0-2.4-.8-2.8,1.4-2.9Z"/>
    <path class="st0" d="M32.7,255.7c0,2.3.8,2.8-1.4,2.9,0-.5,0-1,0-1.4s0-1,0-1.4c.5,0,1,0,1.4,0Z"/>
    <path class="st0" d="M44.1,230c1.6,0,2,.4,1.4,2.6s-.9.2-1.4.3c0,2.4.8,2.8-1.4,2.9,0-.5,0-1,0-1.4s0-1,0-1.4c.5,0,1,0,1.4,0,0-.5,0-1,0-1.4s0-1,0-1.4Z"/>
    <path class="st0" d="M48.4,221.4c0,2.3.8,2.9-1.4,2.9v-2.9c.5,0,1,0,1.4,0Z"/>
    <path class="st0" d="M62.7,278.5v1.4c0,.5,0,1,0,1.4-.5,0-1,0-1.4,0,0,.5,0,1,0,1.4s0,1,0,1.4c-.5,0-1,0-1.4,0,.1-2.4-.9-2.8,1.4-2.9,0-2.4-.8-2.8,1.4-2.9Z"/>
    <path class="st0" d="M45.5,225.7c.5,0,1.3-.2,1.4.3.6,2.1.2,2.5-1.4,2.6v-2.9Z"/>
    <path class="st0" d="M128.4,240c0,.5,0,1,0,1.4h-1.4c0-.4,0-1.3,0-1.4s1.1,0,1.4,0Z"/>
    <path class="st0" d="M31.2,258.5c0,.4.2,1.1,0,1.4s-1,0-1.4,0v-1.4c.5,0,1,0,1.4,0Z"/>
    <path class="st0" d="M25.5,267.1c0,.4.2,1.1,0,1.4s-1,0-1.4,0v-1.4c.5,0,1,0,1.4,0Z"/>
    <path class="st0" d="M22.7,271.4c0,.4,0,1.3,0,1.4s-1.1,0-1.4,0v-1.4c.5,0,1,0,1.4,0Z"/>
    <path class="st0" d="M19.8,275.7c0,.4,0,1.3,0,1.4s-1.1,0-1.4,0v-1.4c.5,0,1,0,1.4,0Z"/>
    <path class="st0" d="M174.1,175.7c0,.5,0,1,0,1.4s0,1,0,1.4c0,1.4,0,2.9,0,4.3s-.7,3.3,1.4,2.9c0,.5,0,1,0,1.4H54.1v-5.7c0-1,0-1.9,0-2.9,1.7,0,1.3-.3,1.4,1.2s-.1,4,0,6h117.2c.2-2.9-.2-6,0-8.8s-.2-1.2,1.4-1.2Z"/>
    <path class="st0" d="M101.2,12.8v135.5c0,.5-1,.2-1.4.3.3-44.3-.4-88.6,0-132.9,0-.5,0-1,0-1.4s0-1,0-1.4c.5,0,1,0,1.4,0Z"/>
    <path class="st0" d="M129.8,12.8c0,.5,0,1,0,1.4,0,1,0,1.9,0,2.9.5,43.8-.4,87.7,0,131.5-.4,0-1.4.3-1.4-.3V12.8c.5,0,1,0,1.4,0Z"/>
    <path class="st0" d="M84.1,149.9c.5,0,1,0,1.4,0,1.4,0,2.9,0,4.3,0h8.6c0,.4,0,1.4,0,1.4-.7.6-16.1,0-18.6,0,0,.5.3,1.3-.3,1.4s-3.9.1-4,0,0-1.1,0-1.4c.5,0,1,0,1.4,0,1,0,1.9,0,2.9,0,0-.5,0-1,0-1.4,1.4,0,2.9,0,4.3,0Z"/>
    <path class="st0" d="M139.8,149.9c1.4,0,2.9,0,4.3,0s2.9,0,4.3,0c0,.4.2,1.4-.3,1.4-2.2-.4-16.2.5-16.9,0s0-1.1,0-1.4h8.6Z"/>
    <path class="st0" d="M109.8,4.2c1,0,1.9,0,2.9,0,1.4,0,2.9,0,4.3,0s1.9,0,2.9,0,1,0,1.4,0c0,.5,0,1,0,1.4-4.2-.1-8.6-.1-12.9,0,0,2.3-.5,1.3-2.9,1.4,0-.4,0-1.4,0-1.4s1.1,0,1.4,0,1,0,1.4,0c0-.5,0-1,0-1.4.5,0,1,0,1.4,0Z"/>
    <path class="st0" d="M172.7,169.9c0,.5,0,1,0,1.4s0,1,0,1.4v1.4c0,0-.3,2-1.4,1s0-4.4,0-5.2c.5,0,1,0,1.4,0Z"/>
    <path class="st0" d="M151.3,151.4h1.4c.5,0,1,0,1.4,0,0,.5,0,1,0,1.4-.8,0-4.1.1-4.3,0s0-1.1,0-1.4h1.4Z"/>
    <path class="st0" d="M169.8,164.2c0,.5,0,1,0,1.4s0,1,0,1.4c-2.3,0-1.3-.5-1.4-2.9.5,0,1,0,1.4,0Z"/>
    <path class="st0" d="M72.7,152.8h1.4c0,2.3-.5,1.3-2.9,1.4,0-.5,0-1,0-1.4.5,0,1,0,1.4,0Z"/>
    <path class="st0" d="M161.3,155.7c.4,0,1.4,0,1.4,0s0,1.1,0,1.4c-2.5,0-2.6.8-2.9-1.4.5,0,1,0,1.4,0Z"/>
    <path class="st0" d="M102.7,9.9c0,2.4.8,2.8-1.4,2.9,0-.5,0-1,0-1.4s0-1.4,0-1.4,1.1,0,1.4,0Z"/>
    <path class="st0" d="M128.4,9.9c0,0,0,1.1,0,1.4s0,1,0,1.4c-2.3,0-1.3-.5-1.4-2.9.4,0,1.4,0,1.4,0Z"/>
    <path class="st0" d="M171.3,167.1c0,.5,0,1,0,1.4s0,1,0,1.4c-2.3,0-1.3-.5-1.4-2.9.5,0,1,0,1.4,0Z"/>
    <path class="st0" d="M61.2,162.8c0,.4.2,1.1,0,1.4s-1,0-1.4,0v-1.4c.5,0,1,0,1.4,0Z"/>
    <path class="st0" d="M105.5,7c0,.4.2,1.1,0,1.4s-1,0-1.4,0c0,.4.2,1.1,0,1.4s-1,0-1.4,0c0-.4,0-1.4,0-1.4,0,0,1.1,0,1.4,0,0-.4,0-1.3,0-1.4s1.1,0,1.4,0Z"/>
    <path class="st0" d="M125.5,7c.1.1-.1,1.3,0,1.4s1.3-.1,1.4,0,0,1.1,0,1.4c-2.6-.2-1-1-1.4-1.4s-1.2,1.2-1.4-1.4c.4,0,1.3,0,1.4,0Z"/>
    <path class="st0" d="M159.8,154.2c0,.5,0,1,0,1.4-.4,0-1.1.2-1.4,0s0-1,0-1.4h1.4Z"/>
    <path class="st0" d="M164.1,157.1c0,0,0,1.1,0,1.4.4,0,1.3,0,1.4,0s0,1.1,0,1.4c.4,0,1.3,0,1.4,0s0,1.1,0,1.4c-.4,0-1.1.2-1.4,0s0-1,0-1.4c-.4,0-1,.2-1.3,0s0-.9,0-1.3c-.4,0-1.1.2-1.4,0s0-1,0-1.4c.4,0,1.4,0,1.4,0Z"/>
    <path class="st0" d="M175.6,204.2c0,.5,0,1,0,1.4H51.2c0-.5,0-1,0-1.4h124.3Z"/>
  </g>
  <g>
    <path class="st0" d="M208.2,124.7h25v20.1h.5c5-13.3,17.5-21.4,32.5-21.4s27.7,8.2,32,22.7h.5c5.5-14,19.2-22.7,35.6-22.7s37.3,15,37.3,37.8v77.7h-26v-71.4c0-14.2-7.5-22.3-20.9-22.3s-22.2,9.7-22.2,23.6v70h-25.3v-72.8c0-12.9-7.9-20.8-20.6-20.8s-22.5,10.1-22.5,24.2v69.4h-26v-114.2Z"/>
    <path class="st0" d="M488,204.9c-3.3,21.1-23.6,35.6-50.3,35.6s-54.6-22.4-54.6-58.3,21-59.1,53.7-59.1,52.2,21.8,52.2,56.4v8.6h-79.9v1.6c0,18.4,11.7,30.6,29.2,30.6s22.3-6,25.3-15.4h24.5ZM409.4,170.8h54.1c-.5-16.5-11.2-27.4-26.6-27.4s-26.3,11.1-27.5,27.4Z"/>
    <path class="st0" d="M534.5,99.2v25.5h21.6v20.2h-21.6v60.2c0,9.4,4.4,13.9,13.8,13.9s6.1-.3,7.7-.5v20c-2.8.6-8.2,1-13.7,1-24.2,0-33.9-8.8-33.9-30.8v-63.7h-15.6v-20.2h15.6v-25.5h26Z"/>
    <path class="st0" d="M563.6,206.2c0-20.4,15.6-32,44.3-33.8l29.7-1.8v-8.4c0-12.1-8.2-18.7-22.2-18.7s-20.3,6.2-22,15.4h-24c.6-20.9,20.1-35.8,46.9-35.8s47,14.8,47,37.5v78.3h-25v-18.4h-.6c-6.3,12.2-20.4,19.6-35.5,19.6-22.5,0-38.6-13.7-38.6-34ZM637.5,196.5v-8.7l-26.1,1.7c-14.2.9-21.7,6.4-21.7,15.7s7.9,15,20.1,15,27.8-9.8,27.8-23.7Z"/>
    <path class="st0" d="M723.6,123.1c26.3,0,44.7,14.2,45.2,34.9h-24.2c-.8-9.6-9.1-15.7-21.5-15.7s-20.1,5.5-20.1,13.9,5.3,10.8,16.6,13.4l20.1,4.6c23,5.3,31.8,14,31.8,30.8s-19.9,35.5-48.5,35.5-46.5-14.1-48.2-35.3h25.6c1.6,10.3,10,16.1,23.6,16.1s21.5-5.3,21.5-13.8-4.2-10.2-15.6-13l-20.7-5c-20.9-4.9-31.6-15.7-31.6-31.9s18.4-34.6,45.9-34.6Z"/>
    <path class="st0" d="M906,238.9h-27.3l-22.8-83.9h-.6l-22.7,83.9h-27.1l-31-114.2h26l19.6,88.2h.5l22.7-88.2h25l22.7,88.2h.5l19.7-88.2h25.7l-31,114.2Z"/>
    <path class="st0" d="M1044.3,204.9c-3.3,21.1-23.6,35.6-50.3,35.6s-54.6-22.4-54.6-58.3,21-59.1,53.7-59.1,52.2,21.8,52.2,56.4v8.6h-79.9v1.6c0,18.4,11.7,30.6,29.2,30.6s22.3-6,25.3-15.4h24.5ZM965.6,170.8h54.1c-.5-16.5-11.2-27.4-26.6-27.4s-26.3,11.1-27.5,27.4Z"/>
    <path class="st0" d="M1157.5,204.9c-3.3,21.1-23.6,35.6-50.3,35.6s-54.6-22.4-54.6-58.3,21-59.1,53.7-59.1,52.2,21.8,52.2,56.4v8.6h-79.9v1.6c0,18.4,11.7,30.6,29.2,30.6s22.3-6,25.3-15.4h24.5ZM1078.8,170.8h54.1c-.5-16.5-11.2-27.4-26.6-27.4s-26.3,11.1-27.5,27.4Z"/>
    <path class="st0" d="M1280.2,181.9c0,35.7-18.4,58.3-47.1,58.3s-29.3-7.4-35.8-20.2h-.5v56.5h-26V124.7h25.4v19.2h.5c6.3-12.5,20.1-20.5,36-20.5,29,0,47.5,22.6,47.5,58.4ZM1253.5,181.9c0-22.3-11.3-36.8-28.5-36.8s-28.4,14.8-28.4,36.8,11.4,36.7,28.4,36.7,28.5-14.3,28.5-36.7Z"/>
  </g>
</svg>